<svg width="50" height="50" viewBox="0 0 50 50" fill="none" xmlns="http://www.w3.org/2000/svg">
<path fill-rule="evenodd" clip-rule="evenodd" d="M15.7071 14.2929C15.3166 13.9024 14.6834 13.9024 14.2929 14.2929C13.9024 14.6834 13.9024 15.3166 14.2929 15.7071L23.4854 24.8996L14.2929 34.0921C13.9024 34.4826 13.9024 35.1157 14.2929 35.5063C14.6834 35.8968 15.3166 35.8968 15.7071 35.5063L24.8996 26.3138L34.0919 35.5061C34.4824 35.8966 35.1156 35.8966 35.5061 35.5061C35.8966 35.1156 35.8966 34.4824 35.5061 34.0919L26.3138 24.8996L35.5061 15.7073C35.8966 15.3168 35.8966 14.6836 35.5061 14.2931C35.1156 13.9025 34.4824 13.9025 34.0919 14.2931L24.8996 23.4854L15.7071 14.2929Z" fill="black"/>
<path d="M14.2929 14.2929L13.9393 13.9393L13.9393 13.9393L14.2929 14.2929ZM15.7071 14.2929L16.0607 13.9393L15.7071 14.2929ZM14.2929 15.7071L13.9393 16.0607L14.2929 15.7071ZM23.4854 24.8996L23.8389 25.2532L24.1925 24.8996L23.8389 24.546L23.4854 24.8996ZM14.2929 34.0921L13.9394 33.7385L13.9394 33.7385L14.2929 34.0921ZM14.2929 35.5063L13.9394 35.8598L13.9394 35.8598L14.2929 35.5063ZM15.7071 35.5063L15.3536 35.1527L15.3536 35.1527L15.7071 35.5063ZM24.8996 26.3138L25.2532 25.9603L24.8996 25.6067L24.546 25.9603L24.8996 26.3138ZM26.3138 24.8996L25.9603 24.546L25.6067 24.8996L25.9603 25.2532L26.3138 24.8996ZM35.5061 15.7073L35.8597 16.0608L35.8597 16.0608L35.5061 15.7073ZM35.5061 14.2931L35.8597 13.9395L35.8597 13.9395L35.5061 14.2931ZM34.0919 14.2931L34.4455 14.6466L34.4455 14.6466L34.0919 14.2931ZM24.8996 23.4854L24.546 23.8389L24.8996 24.1925L25.2532 23.8389L24.8996 23.4854ZM14.6464 14.6464C14.8417 14.4512 15.1583 14.4512 15.3536 14.6464L16.0607 13.9393C15.4749 13.3536 14.5251 13.3536 13.9393 13.9393L14.6464 14.6464ZM14.6464 15.3536C14.4512 15.1583 14.4512 14.8417 14.6464 14.6464L13.9393 13.9393C13.3536 14.5251 13.3536 15.4749 13.9393 16.0607L14.6464 15.3536ZM23.8389 24.546L14.6464 15.3536L13.9393 16.0607L23.1318 25.2532L23.8389 24.546ZM14.6465 34.4456L23.8389 25.2532L23.1318 24.546L13.9394 33.7385L14.6465 34.4456ZM14.6465 35.1527C14.4512 34.9575 14.4512 34.6409 14.6465 34.4456L13.9394 33.7385C13.3536 34.3243 13.3536 35.274 13.9394 35.8598L14.6465 35.1527ZM15.3536 35.1527C15.1583 35.348 14.8417 35.348 14.6465 35.1527L13.9394 35.8598C14.5252 36.4456 15.4749 36.4456 16.0607 35.8598L15.3536 35.1527ZM24.546 25.9603L15.3536 35.1527L16.0607 35.8598L25.2532 26.6674L24.546 25.9603ZM34.4454 35.1525L25.2532 25.9603L24.546 26.6674L33.7383 35.8596L34.4454 35.1525ZM35.1525 35.1525C34.9573 35.3478 34.6407 35.3478 34.4454 35.1525L33.7383 35.8596C34.3241 36.4454 35.2739 36.4454 35.8596 35.8596L35.1525 35.1525ZM35.1525 34.4454C35.3478 34.6407 35.3478 34.9573 35.1525 35.1525L35.8596 35.8596C36.4454 35.2739 36.4454 34.3241 35.8596 33.7383L35.1525 34.4454ZM25.9603 25.2532L35.1525 34.4454L35.8596 33.7383L26.6674 24.546L25.9603 25.2532ZM35.1526 15.3537L25.9603 24.546L26.6674 25.2532L35.8597 16.0608L35.1526 15.3537ZM35.1526 14.6466C35.3478 14.8419 35.3478 15.1585 35.1526 15.3537L35.8597 16.0608C36.4455 15.4751 36.4455 14.5253 35.8597 13.9395L35.1526 14.6466ZM34.4455 14.6466C34.6407 14.4514 34.9573 14.4514 35.1526 14.6466L35.8597 13.9395C35.2739 13.3537 34.3241 13.3537 33.7384 13.9395L34.4455 14.6466ZM25.2532 23.8389L34.4455 14.6466L33.7384 13.9395L24.546 23.1318L25.2532 23.8389ZM15.3536 14.6464L24.546 23.8389L25.2532 23.1318L16.0607 13.9393L15.3536 14.6464Z" fill="black"/>
</svg>
